<?xml version="1.0" encoding="utf-8"?>
<svg version="1.1" xmlns:xlink="http://www.w3.org/1999/xlink" width="14px" height="16px" xmlns="http://www.w3.org/2000/svg">
  <g transform="matrix(1 0 0 1 -562 -191 )">
    <path d="M 8.08463541666665 4.09375  C 8.13932291666665 4.15625  8.16666666666665 4.23611111111109  8.16666666666665 4.33333333333337  L 8.16666666666665 9  C 8.16666666666665 9.09722222222217  8.13932291666665 9.17708333333337  8.08463541666665 9.23958333333337  C 8.02994791666665 9.30208333333337  7.9600694444445 9.33333333333337  7.875 9.33333333333337  L 4.95833333333335 9.33333333333337  C 4.8732638888889 9.33333333333337  4.80338541666665 9.30208333333337  4.74869791666665 9.23958333333337  C 4.69401041666665 9.17708333333337  4.66666666666665 9.09722222222217  4.66666666666665 9  L 4.66666666666665 8.33333333333337  C 4.66666666666665 8.23611111111109  4.69401041666665 8.15625  4.74869791666665 8.09375  C 4.80338541666665 8.03125  4.8732638888889 8  4.95833333333335 8  L 7 8  L 7 4.33333333333337  C 7 4.23611111111109  7.02734375 4.15625  7.08203125 4.09375  C 7.13671875 4.03125  7.20659722222225 4  7.29166666666665 4  L 7.875 4  C 7.9600694444445 4  8.02994791666665 4.03125  8.08463541666665 4.09375  Z M 11.29296875 10.84375  C 11.7365451388889 9.97569444444446  11.9583333333333 9.02777777777783  11.9583333333333 8  C 11.9583333333333 6.97222222222217  11.7365451388889 6.02430555555554  11.29296875 5.15625  C 10.8493923611111 4.28819444444446  10.2478298611111 3.60069444444446  9.48828125 3.09375  C 8.7287326388889 2.58680555555554  7.8993055555555 2.33333333333337  7 2.33333333333337  C 6.1006944444445 2.33333333333337  5.2712673611111 2.58680555555554  4.51171875 3.09375  C 3.7521701388889 3.60069444444446  3.1506076388889 4.28819444444446  2.70703125 5.15625  C 2.2634548611111 6.02430555555554  2.04166666666665 6.97222222222217  2.04166666666665 8  C 2.04166666666665 9.02777777777783  2.2634548611111 9.97569444444446  2.70703125 10.84375  C 3.1506076388889 11.7118055555555  3.7521701388889 12.3993055555555  4.51171875 12.90625  C 5.2712673611111 13.4131944444445  6.1006944444445 13.6666666666666  7 13.6666666666666  C 7.8993055555555 13.6666666666666  8.7287326388889 13.4131944444445  9.48828125 12.90625  C 10.2478298611111 12.3993055555555  10.8493923611111 11.7118055555555  11.29296875 10.84375  Z M 13.0611979166667 3.984375  C 13.6870659722222 5.21006944444446  14 6.54861111111109  14 8  C 14 9.45138888888891  13.6870659722222 10.7899305555555  13.0611979166667 12.015625  C 12.4353298611111 13.2413194444445  11.5861545138889 14.2118055555555  10.513671875 14.9270833333334  C 9.4411892361111 15.6423611111111  8.26996527777775 16  7 16  C 5.73003472222225 16  4.5588107638889 15.6423611111111  3.486328125 14.9270833333334  C 2.4138454861111 14.2118055555555  1.5646701388889 13.2413194444445  0.93880208333335 12.015625  C 0.31293402777775 10.7899305555555  0 9.45138888888891  0 8  C 0 6.54861111111109  0.31293402777775 5.21006944444446  0.93880208333335 3.984375  C 1.5646701388889 2.75868055555554  2.4138454861111 1.78819444444446  3.486328125 1.07291666666663  C 4.5588107638889 0.357638888888914  5.73003472222225 0  7 0  C 8.26996527777775 0  9.4411892361111 0.357638888888914  10.513671875 1.07291666666663  C 11.5861545138889 1.78819444444446  12.4353298611111 2.75868055555554  13.0611979166667 3.984375  Z " fill-rule="nonzero" fill="#999999" stroke="none" transform="matrix(1 0 0 1 562 191 )" />
  </g>
</svg>