<?xml version="1.0" encoding="utf-8"?>
<svg version="1.1" xmlns:xlink="http://www.w3.org/1999/xlink" width="19px" height="19px" xmlns="http://www.w3.org/2000/svg">
  <g transform="matrix(1 0 0 1 -183 -11 )">
    <path d="M 11.7389322916667 7.26106770833333  C 12.357421875 7.87955729166667  12.6666666666667 8.62586805555555  12.6666666666667 9.5  C 12.6666666666667 10.3741319444444  12.357421875 11.1204427083333  11.7389322916667 11.7389322916667  C 11.1204427083333 12.357421875  10.3741319444444 12.6666666666667  9.5 12.6666666666667  C 8.62586805555556 12.6666666666667  7.87955729166667 12.357421875  7.26106770833333 11.7389322916667  C 6.642578125 11.1204427083333  6.33333333333333 10.3741319444444  6.33333333333333 9.5  C 6.33333333333333 8.62586805555555  6.642578125 7.87955729166667  7.26106770833333 7.26106770833333  C 7.87955729166667 6.642578125  8.62586805555556 6.33333333333333  9.5 6.33333333333333  C 10.3741319444444 6.33333333333333  11.1204427083333 6.642578125  11.7389322916667 7.26106770833333  Z M 12.8583984375 12.8583984375  C 13.7861328125 11.9306640625  14.25 10.8111979166667  14.25 9.5  C 14.25 8.18880208333333  13.7861328125 7.0693359375  12.8583984375 6.1416015625  C 11.9306640625 5.2138671875  10.8111979166667 4.75  9.5 4.75  C 8.18880208333333 4.75  7.0693359375 5.2138671875  6.1416015625 6.1416015625  C 5.2138671875 7.0693359375  4.75 8.18880208333333  4.75 9.5  C 4.75 10.8111979166667  5.2138671875 11.9306640625  6.1416015625 12.8583984375  C 7.0693359375 13.7861328125  8.18880208333333 14.25  9.5 14.25  C 10.8111979166667 14.25  11.9306640625 13.7861328125  12.8583984375 12.8583984375  Z M 13.9778645833333 5.02213541666667  C 15.21484375 6.25911458333333  15.8333333333333 7.75173611111111  15.8333333333333 9.5  C 15.8333333333333 11.2482638888889  15.21484375 12.7408854166667  13.9778645833333 13.9778645833333  C 12.7408854166667 15.21484375  11.2482638888889 15.8333333333333  9.5 15.8333333333333  C 7.75173611111111 15.8333333333333  6.25911458333333 15.21484375  5.02213541666667 13.9778645833333  C 3.78515625 12.7408854166667  3.16666666666667 11.2482638888889  3.16666666666667 9.5  C 3.16666666666667 7.75173611111111  3.78515625 6.25911458333333  5.02213541666667 5.02213541666667  C 6.25911458333333 3.78515625  7.75173611111111 3.16666666666667  9.5 3.16666666666667  C 11.2482638888889 3.16666666666667  12.7408854166667 3.78515625  13.9778645833333 5.02213541666667  Z M 16.7858072916667 12.5738932291667  C 17.2063802083333 11.5966796875  17.4166666666667 10.5720486111111  17.4166666666667 9.5  C 17.4166666666667 8.42795138888889  17.2063802083333 7.4033203125  16.7858072916667 6.42610677083333  C 16.365234375 5.44889322916667  15.8024088541667 4.60774739583333  15.0973307291667 3.90266927083333  C 14.3922526041667 3.19759114583333  13.5511067708333 2.634765625  12.5738932291667 2.21419270833333  C 11.5966796875 1.79361979166667  10.5720486111111 1.58333333333333  9.5 1.58333333333333  C 8.42795138888889 1.58333333333333  7.4033203125 1.79361979166667  6.42610677083333 2.21419270833333  C 5.44889322916667 2.634765625  4.60774739583333 3.19759114583333  3.90266927083333 3.90266927083333  C 3.19759114583333 4.60774739583333  2.634765625 5.44889322916667  2.21419270833333 6.42610677083333  C 1.79361979166667 7.4033203125  1.58333333333333 8.42795138888889  1.58333333333333 9.5  C 1.58333333333333 10.5720486111111  1.79361979166667 11.5966796875  2.21419270833333 12.5738932291667  C 2.634765625 13.5511067708333  3.19759114583333 14.3922526041667  3.90266927083333 15.0973307291667  C 4.60774739583333 15.8024088541667  5.44889322916667 16.365234375  6.42610677083333 16.7858072916667  C 7.4033203125 17.2063802083333  8.42795138888889 17.4166666666667  9.5 17.4166666666667  C 10.5720486111111 17.4166666666667  11.5966796875 17.2063802083333  12.5738932291667 16.7858072916667  C 13.5511067708333 16.365234375  14.3922526041667 15.8024088541667  15.0973307291667 15.0973307291667  C 15.8024088541667 14.3922526041667  16.365234375 13.5511067708333  16.7858072916667 12.5738932291667  Z M 17.7259114583333 4.7314453125  C 18.5753038194444 6.18695746527778  19 7.77647569444444  19 9.5  C 19 11.2235243055556  18.5753038194444 12.8130425347222  17.7259114583333 14.2685546875  C 16.8765190972222 15.7240668402778  15.7240668402778 16.8765190972222  14.2685546875 17.7259114583333  C 12.8130425347222 18.5753038194444  11.2235243055556 19  9.5 19  C 7.77647569444444 19  6.18695746527778 18.5753038194444  4.7314453125 17.7259114583333  C 3.27593315972222 16.8765190972222  2.12348090277778 15.7240668402778  1.27408854166667 14.2685546875  C 0.424696180555555 12.8130425347222  0 11.2235243055556  0 9.5  C 0 7.77647569444444  0.424696180555555 6.18695746527778  1.27408854166667 4.7314453125  C 2.12348090277778 3.27593315972222  3.27593315972222 2.12348090277778  4.7314453125 1.27408854166667  C 6.18695746527778 0.424696180555554  7.77647569444444 0  9.5 0  C 11.2235243055556 0  12.8130425347222 0.424696180555554  14.2685546875 1.27408854166667  C 15.7240668402778 2.12348090277778  16.8765190972222 3.27593315972222  17.7259114583333 4.7314453125  Z " fill-rule="nonzero" fill="#333333" stroke="none" transform="matrix(1 0 0 1 183 11 )" />
  </g>
</svg>