<?xml version="1.0" encoding="utf-8"?>
<svg version="1.1" xmlns:xlink="http://www.w3.org/1999/xlink" width="37px" height="27px" xmlns="http://www.w3.org/2000/svg">
  <g transform="matrix(1 0 0 1 -110 -6 )">
    <path d="M 5.09988839285714 22.658203125  C 5.22377232142857 22.763671875  5.28571428571429 22.8984375  5.28571428571429 23.0625  L 5.28571428571429 26.4375  C 5.28571428571429 26.6015625  5.22377232142857 26.736328125  5.09988839285714 26.841796875  C 4.97600446428571 26.947265625  4.81770833333333 27  4.625 27  L 0.660714285714286 27  C 0.468005952380952 27  0.309709821428572 26.947265625  0.185825892857143 26.841796875  C 0.0619419642857143 26.736328125  0 26.6015625  0 26.4375  L 0 23.0625  C 0 22.8984375  0.0619419642857143 22.763671875  0.185825892857143 22.658203125  C 0.309709821428572 22.552734375  0.468005952380952 22.5  0.660714285714286 22.5  L 4.625 22.5  C 4.81770833333333 22.5  4.97600446428571 22.552734375  5.09988839285714 22.658203125  Z M 13.0284598214286 20.408203125  C 13.15234375 20.513671875  13.2142857142857 20.6484375  13.2142857142857 20.8125  L 13.2142857142857 26.4375  C 13.2142857142857 26.6015625  13.15234375 26.736328125  13.0284598214286 26.841796875  C 12.9045758928571 26.947265625  12.7462797619048 27  12.5535714285714 27  L 8.58928571428572 27  C 8.39657738095238 27  8.23828125 26.947265625  8.11439732142857 26.841796875  C 7.99051339285714 26.736328125  7.92857142857143 26.6015625  7.92857142857143 26.4375  L 7.92857142857143 20.8125  C 7.92857142857143 20.6484375  7.99051339285714 20.513671875  8.11439732142857 20.408203125  C 8.23828125 20.302734375  8.39657738095238 20.25  8.58928571428572 20.25  L 12.5535714285714 20.25  C 12.7462797619048 20.25  12.9045758928571 20.302734375  13.0284598214286 20.408203125  Z M 20.95703125 15.908203125  C 21.0809151785714 16.013671875  21.1428571428571 16.1484375  21 16.3125  L 21 26.4375  C 21.1428571428571 26.6015625  21.0809151785714 26.736328125  20.95703125 26.841796875  C 20.8331473214286 26.947265625  20.6748511904762 27  20.4821428571429 27  L 16.5178571428571 27  C 16.3251488095238 27  16.1668526785714 26.947265625  16.04296875 26.841796875  C 15.9190848214286 26.736328125  15.8571428571429 26.6015625  16 26.4375  L 16 16.3125  C 15.8571428571429 16.1484375  15.9190848214286 16.013671875  16.04296875 15.908203125  C 16.1668526785714 15.802734375  16.3251488095238 15.75  16.5178571428571 15.75  L 20.4821428571429 15.75  C 20.6748511904762 15.75  20.8331473214286 15.802734375  20.95703125 15.908203125  Z M 28.8856026785714 9.158203125  C 29.0094866071429 9.263671875  29.0714285714286 9.3984375  29 9.5625  L 29 26.4375  C 29.0714285714286 26.6015625  29.0094866071429 26.736328125  28.8856026785714 26.841796875  C 28.76171875 26.947265625  28.6034226190476 27  28.4107142857143 27  L 24.4464285714286 27  C 24.2537202380952 27  24.0954241071429 26.947265625  23.9715401785714 26.841796875  C 23.84765625 26.736328125  23.7857142857143 26.6015625  23.7857142857143 26.4375  L 23.7857142857143 9.5625  C 23.7857142857143 9.3984375  23.84765625 9.263671875  23.9715401785714 9.158203125  C 24.0954241071429 9.052734375  24.2537202380952 9  24.4464285714286 9  L 28.4107142857143 9  C 28.6034226190476 9  28.76171875 9.052734375  28.8856026785714 9.158203125  Z M 36.8141741071429 0.158203125  C 36.9380580357143 0.263671875  37 0.398437499999996  37 0.562500000000001  L 37 26.4375  C 37 26.6015625  36.9380580357143 26.736328125  36.8141741071429 26.841796875  C 36.6902901785714 26.947265625  36.5319940476191 27  36.3392857142857 27  L 32.375 27  C 32.1822916666667 27  32.0239955357143 26.947265625  31.9001116071429 26.841796875  C 31.7762276785714 26.736328125  31.7142857142857 26.6015625  31 26.4375  L 31 0.562500000000001  C 31.7142857142857 0.398437499999996  31.7762276785714 0.263671875  31.9001116071429 0.158203125  C 32.0239955357143 0.052734375  32.1822916666667 0  32.375 0  L 36.3392857142857 0  C 36.5319940476191 0  36.6902901785714 0.052734375  36.8141741071429 0.158203125  Z " fill-rule="nonzero" fill="#333333" stroke="none" transform="matrix(1 0 0 1 110 6 )" />
  </g>
</svg>