<?xml version="1.0" encoding="utf-8"?>
<svg version="1.1" xmlns:xlink="http://www.w3.org/1999/xlink" width="68px" height="67px" xmlns="http://www.w3.org/2000/svg">
  <g transform="matrix(1 0 0 1 -32 -60 )">
    <path d="M 59.5666429080542 0.669044222539228  C 62.6685673556664 -0.350451735615801  65.0596341173676 -0.159296243461732  66.7398431931575 1.24251069900143  C 68.1615585649798 2.89919163100332  68.3554288429556 5.25677603423681  67.3214540270848 8.31526390870186  C 66.2874792112141 11.3737517831669  64.5426467094322 14.1136471707085  62.0869565217391 16.5349500713267  L 54.2836778332145 24.2289586305278  L 62.0384889522452 57.4900142653352  C 62.200047517225 58.0953399904898  62.0061772392492 58.6210175939135  61.4568781183179 59.0670470756063  L 55.2530292230934 63.6547788873038  C 55.0268472321216 63.8459343794579  54.71988595866 63.9415121255349  54.3321454027085 63.9415121255349  C 54.2028985507246 63.9415121255349  54.0898075552388 63.9255825011888  53.9928724162509 63.8937232524964  C 53.5081967213115 63.7981455064194  53.1689237348539 63.5432715168807  52.9750534568781 63.1291012838802  L 39.4526015680684 38.8523537803138  L 26.8995010691376 51.2296718972896  L 29.4682822523165 60.5007132667618  C 29.6298408172963 61.0423204945316  29.5005939653124 61.536138849263  29.0805416963649 61.9821683309558  L 24.4276550249465 66.5699001426534  C 24.1368496079829 66.8566333808844  23.7652649085293 67  23.3129009265859 67  L 23.215965787598 67  C 22.7312900926586 66.9362815026153  22.3435495367071 66.7291963861151  22.0527441197434 66.3787446504993  L 12.8923734853885 54.3359486447932  L 0.678545972915182 45.3038516405136  C 0.32311712995961 45.0808368996671  0.113090995485864 44.7144555397052  0.0484675694939416 44.2047075606277  C 0.0161558564979805 43.7905373276272  0.161558564979805 43.3922967189729  0.484675694939416 43.0099857346648  L 5.1375623663578 38.3744650499287  C 5.42836778332145 38.0877318116976  5.79995248277501 37.944365192582  6.25231646471846 37.944365192582  C 6.44618674269423 37.944365192582  6.57543359467807 37.9602948169282  6.64005702066999 37.9921540656205  L 16.0427655024947 40.5249643366619  L 28.5958660014255 28.1476462196862  L 3.97434069850321 14.8145506419401  C 3.52197671655975 14.5596766524013  3.24732715609408 14.1773656680932  3.1503920171062 13.6676176890157  C 3.08576859111428 13.1578697099382  3.2311712995961 12.7277698525915  3.58660014255168 12.3773181169757  L 9.79044903777619 6.26034236804565  C 10.2428130197196 5.84617213504517  10.7274887146591 5.71873514027579  11.2444761225944 5.87803138373752  L 43.4754098360656 13.4764621968616  L 51.2302209550962 5.830242510699  C 53.6859111427893 3.40893961008083  56.4647184604419 1.68854018069424  59.5666429080542 0.669044222539228  Z " fill-rule="nonzero" fill="#333333" stroke="none" transform="matrix(1 0 0 1 32 60 )" />
  </g>
</svg>