<?xml version="1.0" encoding="utf-8"?>
<svg version="1.1" xmlns:xlink="http://www.w3.org/1999/xlink" width="8px" height="6px" xmlns="http://www.w3.org/2000/svg">
  <g transform="matrix(1 0 0 1 -503 -86 )">
    <path d="M 7.85156250000003 0.197916666666657  C 7.95052083333332 0.329861111111114  8 0.486111111111114  8 0.666666666666657  C 8 0.847222222222229  7.95052083333332 1.00347222222223  7.85156250000003 1.13541666666666  L 4.3515625 5.80208333333334  C 4.25260416666663 5.93402777777777  4.13541666666663 6  4 6  C 3.86458333333337 6  3.74739583333337 5.93402777777777  3.6484375 5.80208333333334  L 0.148437499999967 1.13541666666666  C 0.0494791666666837 1.00347222222223  0 0.847222222222229  0 0.666666666666657  C 0 0.486111111111114  0.0494791666666837 0.329861111111114  0.148437499999967 0.197916666666657  C 0.247395833333334 0.0659722222222285  0.364583333333335 0  0.499999999999968 0  L 7.50000000000003 0  C 7.63541666666667 0  7.75260416666667 0.0659722222222285  7.85156250000003 0.197916666666657  Z " fill-rule="nonzero" fill="#cccccc" stroke="none" transform="matrix(1 0 0 1 503 86 )" />
  </g>
</svg>