<?xml version="1.0" encoding="utf-8"?>
<svg version="1.1" xmlns:xlink="http://www.w3.org/1999/xlink" width="50px" height="50px" xmlns="http://www.w3.org/2000/svg">
  <g transform="matrix(1 0 0 1 -213 -63 )">
    <path d="M 43.7990021382751 0.49928673323823  C 46.07982893799 -0.261531145981941  47.8379662627703 -0.118877793628158  49.0734141126158 0.927246790299574  C 50.1187930624852 2.16357584403233  50.2613447374673 3.92296718972896  49.5010691375624 6.20542082738945  C 48.7407935376574 8.48787446504993  47.4578284628178 10.5325725154541  45.6521739130435 12.339514978602  L 39.9144689950107 18.0813124108417  L 45.6165359942979 42.9029957203994  C 45.7353290567831 43.3547313361864  45.5927773818009 43.7470280551593  45.1888809693514 44.0798858773181  L 40.6272273699216 47.5035663338088  C 40.4609170824424 47.6462196861626  40.2352102637206 47.7175463623395  39.9501069137562 47.7175463623395  C 39.8550724637681 47.7175463623395  39.7719173200285 47.7056585829767  39.7006414825374 47.6818830242511  C 39.344262295082 47.6105563480742  39.0947968638632 47.4203518782691  38.952245188881 47.1112696148359  L 29.0092658588738 28.9942938659059  L 19.7790449037776 38.2310984308131  L 21.6678545972915 45.1497860199715  C 21.7866476597767 45.5539705183072  21.6916132097886 45.9224916785544  21.3827512473272 46.2553495007133  L 17.9615110477548 49.679029957204  C 17.7476835352815 49.8930099857347  17.4744594915657 50  17.1418389166073 50  L 17.0705630791162 50  C 16.7141838916607 49.9524488825487  16.4290805416964 49.7979077508321  16.2152530292231 49.5363766048502  L 9.47968638631504 40.5492154065621  L 0.498930862437634 33.8088445078459  C 0.237586124970302 33.6424155967665  0.0831551437396056 33.3689966714218  0.0356379187455453 32.9885877318117  C 0.0118793062485151 32.6795054683785  0.118793062485151 32.3823109843081  0.356379187455453 32.0970042796006  L 3.7776193870278 28.6376604850214  C 3.99144689950107 28.4236804564907  4.26467094321692 28.3166904422254  4.59729151817534 28.3166904422254  C 4.73984319315752 28.3166904422254  4.83487764314564 28.3285782215882  4.8823948681397 28.3523537803138  L 11.7961511047755 30.2425106990014  L 21.0263720598717 21.0057061340941  L 2.92230933713471 11.055634807418  C 2.58968876217629 10.8654303376129  2.38774055595153 10.5801236329054  2.31646471846044 10.1997146932953  C 2.26894749346638 9.81930575368521  2.37586124970302 9.4983357108892  2.63720598717035 9.23680456490727  L 7.19885958660014 4.67189728958631  C 7.53148016155856 4.36281502615311  7.88785934901402 4.26771279125059  8.2679971489665 4.38659058487875  L 31.9672131147541 10.0570613409415  L 37.6692801140413 4.3509272467903  C 39.4749346638156 2.54398478364241  41.5181753385602 1.26010461245839  43.7990021382751 0.49928673323823  Z " fill-rule="nonzero" fill="#333333" stroke="none" transform="matrix(1 0 0 1 213 63 )" />
  </g>
</svg>