<?xml version="1.0" encoding="utf-8"?>
<svg version="1.1" xmlns:xlink="http://www.w3.org/1999/xlink" width="18px" height="17px" xmlns="http://www.w3.org/2000/svg">
  <g transform="matrix(1 0 0 1 -155 -11 )">
    <path d="M 5 5.40909090909091  L 5 7.72727272727273  L 13 7.72727272727273  L 13 5.40909090909091  C 13 4.55587121212121  12.609375 3.82741477272727  11.828125 3.22372159090909  C 11.046875 2.62002840909091  10.1041666666667 2.31818181818182  9 2.31818181818182  C 7.89583333333333 2.31818181818182  6.953125 2.62002840909091  6.171875 3.22372159090909  C 5.390625 3.82741477272727  5 4.55587121212121  5 5.40909090909091  Z M 17.5625 8.06534090909091  C 17.8541666666667 8.2907196969697  18 8.56439393939394  18 8.88636363636364  L 18 15.8409090909091  C 18 16.1628787878788  17.8541666666667 16.436553030303  17.5625 16.6619318181818  C 17.2708333333333 16.8873106060606  16.9166666666667 17  16.5 17  L 1.5 17  C 1.08333333333333 17  0.729166666666667 16.8873106060606  0.4375 16.6619318181818  C 0.145833333333333 16.436553030303  0 16.1628787878788  0 15.8409090909091  L 0 8.88636363636364  C 0 8.56439393939394  0.145833333333333 8.2907196969697  0.4375 8.06534090909091  C 0.729166666666667 7.83996212121212  1.08333333333333 7.72727272727273  1.5 7.72727272727273  L 2 7.72727272727273  L 2 5.40909090909091  C 2 3.9280303030303  2.6875 2.65625  4.0625 1.59375  C 5.4375 0.53125  7.08333333333333 0  9 0  C 10.9166666666667 0  12.5625 0.53125  13.9375 1.59375  C 15.3125 2.65625  16 3.9280303030303  16 5.40909090909091  L 16 7.72727272727273  L 16.5 7.72727272727273  C 16.9166666666667 7.72727272727273  17.2708333333333 7.83996212121212  17.5625 8.06534090909091  Z " fill-rule="nonzero" fill="#333333" stroke="none" transform="matrix(1 0 0 1 155 11 )" />
  </g>
</svg>