<?xml version="1.0" encoding="utf-8"?>
<svg version="1.1" xmlns:xlink="http://www.w3.org/1999/xlink" width="12px" height="12px" viewBox="84 66  12 12" xmlns="http://www.w3.org/2000/svg">
  <path d="M 90 66  C 93.36 66  96 68.64  96 72  C 96 75.36  93.36 78  90 78  C 86.64 78  84 75.36  84 72  C 84 68.64  86.64 66  90 66  Z " fill-rule="nonzero" fill="#ffffff" stroke="none" />
  <path d="M 90 66.5  C 93.08 66.5  95.5 68.92  95.5 72  C 95.5 75.08  93.08 77.5  90 77.5  C 86.92 77.5  84.5 75.08  84.5 72  C 84.5 68.92  86.92 66.5  90 66.5  Z " stroke-width="1" stroke="#797979" fill="none" />
  <path d="M 90 75  C 88.32 75  87 73.68  87 72  C 87 70.32  88.32 69  90 69  C 91.68 69  93 70.32  93 72  C 93 73.68  91.68 75  90 75  " fill-rule="nonzero" fill="#797979" stroke="none" />
</svg>