<?xml version="1.0" encoding="utf-8"?>
<svg version="1.1" xmlns:xlink="http://www.w3.org/1999/xlink" width="12px" height="12px" viewBox="84 92  12 12" xmlns="http://www.w3.org/2000/svg">
  <path d="M 90 92  C 93.36 92  96 94.64  96 98  C 96 101.36  93.36 104  90 104  C 86.64 104  84 101.36  84 98  C 84 94.64  86.64 92  90 92  Z " fill-rule="nonzero" fill="#f0f0f0" stroke="none" />
  <path d="M 90 92.5  C 93.08 92.5  95.5 94.92  95.5 98  C 95.5 101.08  93.08 103.5  90 103.5  C 86.92 103.5  84.5 101.08  84.5 98  C 84.5 94.92  86.92 92.5  90 92.5  Z " stroke-width="1" stroke="#797979" fill="none" />
  <path d="M 90 101  C 88.32 101  87 99.68  87 98  C 87 96.32  88.32 95  90 95  C 91.68 95  93 96.32  93 98  C 93 99.68  91.68 101  90 101  " fill-rule="nonzero" fill="#797979" stroke="none" />
</svg>