<?xml version="1.0" encoding="utf-8"?>
<svg version="1.1" xmlns:xlink="http://www.w3.org/1999/xlink" width="50px" height="42px" xmlns="http://www.w3.org/2000/svg">
  <g transform="matrix(1 0 0 1 -26 -39 )">
    <path d="M 43.7990021382751 0.419400855920113  C 46.07982893799 -0.219686162624831  47.8379662627703 -0.0998573466476529  49.0734141126158 0.778887303851642  C 50.1187930624852 1.81740370898716  50.2613447374673 3.29529243937233  49.5010691375624 5.21255349500713  C 48.7407935376574 7.12981455064194  47.4578284628178 8.84736091298145  45.6521739130435 10.3651925820257  L 39.9144689950107 15.188302425107  L 45.6165359942979 36.0385164051355  C 45.7353290567831 36.4179743223966  45.5927773818009 36.7475035663338  45.1888809693514 37.0271041369472  L 40.6272273699216 39.9029957203994  C 40.4609170824424 40.0228245363766  40.2352102637206 40.0827389443652  39.9501069137562 40.0827389443652  C 39.8550724637681 40.0827389443652  39.7719173200285 40.0727532097004  39.7006414825374 40.0527817403709  C 39.344262295082 39.9928673323823  39.0947968638632 39.8330955777461  38.952245188881 39.5734664764622  L 29.0092658588738 24.3552068473609  L 19.7790449037776 32.114122681883  L 21.6678545972915 37.925820256776  C 21.7866476597767 38.265335235378  21.6916132097886 38.5748930099857  21.3827512473272 38.8544935805991  L 17.9615110477548 41.7303851640514  C 17.7476835352815 41.9101283880171  17.4744594915657 42  17.1418389166073 42  L 17.0705630791162 42  C 16.7141838916607 41.9600570613409  16.4290805416964 41.830242510699  16.2152530292231 41.6105563480742  L 9.47968638631504 34.0613409415121  L 0.498930862437634 28.3994293865906  C 0.237586124970302 28.2596291012839  0.0831551437396056 28.0299572039943  0.0356379187455453 27.7104136947218  C 0.0118793062485151 27.4507845934379  0.118793062485151 27.2011412268188  0.356379187455453 26.9614835948645  L 3.7776193870278 24.055634807418  C 3.99144689950107 23.8758915834522  4.26467094321692 23.7860199714693  4.59729151817534 23.7860199714693  C 4.73984319315752 23.7860199714693  4.83487764314564 23.7960057061341  4.8823948681397 23.8159771754636  L 11.7961511047755 25.4037089871612  L 21.0263720598717 17.6447931526391  L 2.92230933713471 9.2867332382311  C 2.58968876217629 9.12696148359486  2.38774055595153 8.88730385164051  2.31646471846044 8.56776034236804  C 2.26894749346638 8.24821683309558  2.37586124970302 7.97860199714693  2.63720598717035 7.75891583452211  L 7.19885958660014 3.9243937232525  C 7.53148016155856 3.66476462196861  7.88785934901402 3.58487874465049  8.2679971489665 3.68473609129815  L 31.9672131147541 8.44793152639087  L 37.6692801140413 3.65477888730385  C 39.4749346638156 2.13694721825963  41.5181753385602 1.05848787446505  43.7990021382751 0.419400855920113  Z " fill-rule="nonzero" fill="#333333" stroke="none" transform="matrix(1 0 0 1 26 39 )" />
  </g>
</svg>