<?xml version="1.0" encoding="utf-8"?>
<svg version="1.1" xmlns:xlink="http://www.w3.org/1999/xlink" width="65px" height="42px" xmlns="http://www.w3.org/2000/svg">
  <g transform="matrix(1 0 0 1 -113 -39 )">
    <path d="M 51.7670036764706 25  L 18.5202205882353 25  C 16.3296568627451 27.0454545454545  13.6611519607843 27.6818181818182  10.5147058823529 27.6818181818182  L 6.69117647058823 27.6818181818182  L 6.69117647058823 25.7727272727273  L 4.77941176470588 25.7727272727273  C 4.52052696078431 25.7727272727273  4.29649203431373 25.5390625  4.10730698529412 25.0717329545455  C 3.91812193627451 24.6044034090909  3.82352941176471 24.0426136363636  3.82352941176471 23.3863636363636  C 3.82352941176471 22.9090909090909  3.89322916666667 22.421875  4.03262867647059 21.9247159090909  C 2.87760416666667 21.8849431818182  1.91674325980392 21.7805397727273  1.15004595588235 21.6115056818182  C 0.383348651960784 21.4424715909091  0 21.2386363636364  0 21  C 0 20.7613636363636  0.383348651960784 20.5575284090909  1.15004595588235 20.3884943181818  C 1.91674325980392 20.2194602272727  2.87760416666667 20.1150568181818  4.03262867647059 20.0752840909091  C 3.89322916666667 19.578125  3.82352941176471 19.0909090909091  3.82352941176471 18.6136363636364  C 3.82352941176471 17.9573863636364  3.91812193627451 17.3955965909091  4.10730698529412 16.9282670454545  C 4.29649203431373 16.4609375  4.52052696078431 16.2272727272727  4.77941176470588 16.2272727272727  L 6.69117647058823 16.2272727272727  L 6.69117647058823 14.3181818181818  L 10.5147058823529 14.3181818181818  C 13.6611519607843 14.3181818181818  16.3296568627451 14.9545454545454  18.5202205882353 17  L 51.7670036764706 17  C 52.6034007352941 16.3664772727273  53.6638327205882 16.5454545454545  54.9482996323529 16.7642045454545  C 56.2327665441176 16.9829545454545  57.0343137254902 17.1221590909091  57.3529411764706 17.1818181818182  C 59.125306372549 17.4801136363636  60.6188725490196 17.8828125  61.8336397058824 18.3899147727273  C 63.0484068627451 18.8970170454545  63.8798253676471 19.3693181818182  64.3278952205882 19.8068181818182  C 64.7759650735294 20.2443181818182  65 20.6420454545455  65 21  C 65 21.3579545454545  64.7759650735294 21.7556818181818  64.3278952205882 22.1931818181818  C 63.8798253676471 22.6306818181818  63.0484068627451 23.1029829545455  61.8336397058824 23.6100852272727  C 60.6188725490196 24.1171875  59.125306372549 24.5198863636364  57.3529411764706 24.8181818181818  C 57.0343137254902 24.8778409090909  56.2327665441176 25.0170454545455  54.9482996323529 25.2357954545455  C 53.6638327205882 25.4545454545454  52.6034007352941 25.6335227272727  51.7670036764706 25  Z M 54.3658088235294 17.3607954545455  L 51.9462316176471 18.2556818181818  C 53.0016850490196 18.9715909090909  53.5294117647059 19.8863636363636  53.5294117647059 21  C 53.5294117647059 22.1136363636364  53.0016850490196 23.0284090909091  51.9462316176471 23.7443181818182  L 54.3658088235294 24.6392045454545  C 55.7199754901961 23.6846590909091  56.3970588235294 22.4715909090909  56.3970588235294 21  C 56.3970588235294 19.5284090909091  55.7199754901961 18.3153409090909  54.3658088235294 17.3607954545455  Z M 10.5147058823529 28.1590909090909  C 13.641237745098 28.1590909090909  16.3595281862745 27.5227272727273  18.6695772058824 26  L 48.9889705882353 26  C 44.6675857843137 27.0056818181818  40.1271446078431 27.8011363636364  35.3676470588235 28.6363636363636  C 34.2325367647059 28.6363636363636  33.1073835784314 28.875  31.9921875 29.3522727272727  C 30.8769914215686 29.8295454545455  30.0505514705882 30.3068181818182  29.5128676470588 30.7840909090909  L 28.6764705882353 31.5  L 20.0735294117647 40.0909090909091  C 19.5557598039216 40.6079545454545  18.8537837009804 41.0553977272727  17.9676011029412 41.4332386363636  C 17.081418504902 41.8110795454545  16.1902573529412 42  15.2941176470588 42  L 12.4264705882353 42  L 9.6484375 28.1590909090909  L 10.5147058823529 28.1590909090909  Z M 18.6695772058824 16  C 16.3595281862745 14.4772727272727  13.641237745098 13.8409090909091  10.5147058823529 13.8409090909091  L 9.6484375 13.8409090909091  L 12.4264705882353 0  L 15.2941176470588 0  C 16.2101715686275 0  17.1063112745098 0.188920454545451  17.9825367647059 0.566761363636366  C 18.858762254902 0.944602272727267  19.5557598039216 1.39204545454545  20.0735294117647 1.90909090909091  L 28.6764705882353 10.5  C 28.7561274509804 10.5795454545455  28.8656556372549 10.6839488636364  29.0050551470588 10.8132102272727  C 29.1444546568627 10.9424715909091  29.4481464460784 11.1711647727273  29.9161305147059 11.4992897727273  C 30.3841145833333 11.8274147727273  30.8670343137255 12.1157670454545  31.3648897058824 12.3643465909091  C 31.8627450980392 12.6129261363636  32.4751072303922 12.8416193181818  33.2019761029412 13.0504261363636  C 33.9288449754902 13.2592329545455  34.6507352941176 13.3636363636364  35.3676470588235 13.3636363636364  L 48.9889705882353 16  L 18.6695772058824 16  Z " fill-rule="nonzero" fill="#333333" stroke="none" transform="matrix(1 0 0 1 113 39 )" />
  </g>
</svg>